<svg xmlns="http://www.w3.org/2000/svg" width="215.999" height="58.08" viewBox="0 0 215.999 58.08"><path d="M40.371,57.938l-2.052-5.954c.251.019,1.279.1,1.743.14s.813.059,1.045.059a3.872,3.872,0,0,0,3.061-1.308,11.118,11.118,0,0,0,1.87-3.022L47.2,45.005,35.8,13.946h7.687S48.181,28,49.464,32.774c.21.777.695,3.138.695,3.138h.176s4.812-15.375,6.415-20.5a2.025,2.025,0,0,1,2.029-1.465h6.147l-13,36.2a16.164,16.164,0,0,1-3.509,5.608,8.544,8.544,0,0,1-6.411,2.324A10.838,10.838,0,0,1,40.371,57.938ZM191.834,41.721q-3.224-4.213-3.219-11.069v-.61q0-7.525,3.219-12.13a10.408,10.408,0,0,1,9.051-4.605,9.9,9.9,0,0,1,4.569,1.031,10.371,10.371,0,0,1,3.5,2.949V0H216V45.324h-5.715l-.841-3.981a10.467,10.467,0,0,1-3.656,3.415,10.164,10.164,0,0,1-4.961,1.175A10.671,10.671,0,0,1,191.834,41.721Zm5.54-19.6a16.054,16.054,0,0,0-1.711,7.918v.61a12.675,12.675,0,0,0,1.667,6.943,5.836,5.836,0,0,0,5.295,2.587,7.085,7.085,0,0,0,3.787-.958,7.314,7.314,0,0,0,2.539-2.731V22.778a7.457,7.457,0,0,0-2.552-2.716,6.9,6.9,0,0,0-3.715-.974A5.685,5.685,0,0,0,197.374,22.124Zm-72.1,21.283a9.188,9.188,0,0,1-2.626-6.944,8.21,8.21,0,0,1,3.595-7.1q3.6-2.542,10.128-2.542h5.484v-2.76a5.141,5.141,0,0,0-1.436-3.865,5.74,5.74,0,0,0-4.164-1.4,5.932,5.932,0,0,0-3.83,1.148A3.649,3.649,0,0,0,131,22.924l-6.788.029-.032-.175q-.2-3.719,3.324-6.6a14.063,14.063,0,0,1,9.182-2.876,13.419,13.419,0,0,1,8.849,2.789q3.364,2.789,3.365,8.019V38.089a25.608,25.608,0,0,0,.263,3.734,19.636,19.636,0,0,0,.84,3.5h-7.137q-.377-1.192-.623-2.324a16.289,16.289,0,0,1-.335-2.267,12.11,12.11,0,0,1-3.8,3.7,9.772,9.772,0,0,1-5.309,1.5Q127.892,45.933,125.269,43.407Zm6.163-10.649a4.635,4.635,0,0,0-1.738,3.588,3.664,3.664,0,0,0,1.173,2.862,4.883,4.883,0,0,0,3.38,1.059,8.811,8.811,0,0,0,4.773-1.336,6.735,6.735,0,0,0,2.829-3.051V31.232h-5.6A7.064,7.064,0,0,0,131.432,32.758ZM79.62,44.715a10.067,10.067,0,0,1-3.628-3.546l-.84,4.155H69.438V0h7.049V17.461a10.13,10.13,0,0,1,3.482-3.079,9.939,9.939,0,0,1,4.726-1.075,10.438,10.438,0,0,1,9.1,4.59Q97,22.489,97,30.042v.61q0,6.884-3.206,11.084a10.705,10.705,0,0,1-9.036,4.2A10.343,10.343,0,0,1,79.62,44.715Zm-.625-24.581a7.315,7.315,0,0,0-2.508,2.906V36.229a6.912,6.912,0,0,0,2.495,2.921,7.238,7.238,0,0,0,4,1.03,5.842,5.842,0,0,0,5.31-2.571,12.754,12.754,0,0,0,1.652-6.958v-.61a16.273,16.273,0,0,0-1.68-7.933,5.678,5.678,0,0,0-5.34-3.021A6.975,6.975,0,0,0,78.995,20.134ZM28.719,45.382,18.161,12.93h-.175S10.33,36.15,7.774,43.889a2.082,2.082,0,0,1-1.953,1.493H0l14.737-42.3h6.7L36,45.382Zm146.811-.058V25.829q0-3.661-1.422-5.2a5.563,5.563,0,0,0-4.292-1.54,8.393,8.393,0,0,0-3.916.857,6.865,6.865,0,0,0-2.641,2.369v23.01h-7.049V13.888h6.441l.4,4.532a11.258,11.258,0,0,1,3.874-3.763,10.324,10.324,0,0,1,5.266-1.351,9.8,9.8,0,0,1,7.645,3.023q2.736,3.02,2.741,9.441V45.324Zm-72.44,0V13.888h6.441l.464,4.561a10.084,10.084,0,0,1,3.06-3.777,7.127,7.127,0,0,1,4.308-1.365,6.6,6.6,0,0,1,1.191.1,8.808,8.808,0,0,1,1.016.247l-.842,6.6-3.018-.117a6.3,6.3,0,0,0-3.437.872,5.751,5.751,0,0,0-2.134,2.469V45.324Z" fill="#f5f5f5" /></svg>