<svg xmlns="http://www.w3.org/2000/svg" width="52.228" height="52.228" viewBox="0 0 52.228 52.228"><g fill="none"><path d="M11.793,0H40.435A11.793,11.793,0,0,1,52.228,11.793V40.435A11.793,11.793,0,0,1,40.435,52.228H11.793A11.793,11.793,0,0,1,0,40.435V11.793A11.793,11.793,0,0,1,11.793,0Z" stroke="none"/><path d="M 11.79347229003906 2 C 6.393329620361328 2 2 6.393341064453125 2 11.79347991943359 L 2 40.43478012084961 C 2 45.83491897583008 6.393329620361328 50.2282600402832 11.79347229003906 50.2282600402832 L 40.43474960327148 50.2282600402832 C 45.83489227294922 50.2282600402832 50.22822189331055 45.83491897583008 50.22822189331055 40.43478012084961 L 50.22822189331055 11.79347991943359 C 50.22822189331055 6.393341064453125 45.83489227294922 2 40.43474960327148 2 L 11.79347229003906 2 M 11.79347229003906 0 L 40.43474960327148 0 C 46.94810104370117 0 52.22822189331055 5.280120849609375 52.22822189331055 11.79347991943359 L 52.22822189331055 40.43478012084961 C 52.22822189331055 46.94813919067383 46.94810104370117 52.2282600402832 40.43474960327148 52.2282600402832 L 11.79347229003906 52.2282600402832 C 5.280120849609375 52.2282600402832 0 46.94813919067383 0 40.43478012084961 L 0 11.79347991943359 C 0 5.280120849609375 5.280120849609375 0 11.79347229003906 0 Z" stroke="none" fill="#ece6e6"/></g><path d="M20.3,98.876a6.8,6.8,0,0,1,1.253,4.117,5.951,5.951,0,0,1-1.264,3.973A6.635,6.635,0,0,1,18.2,108.5a6.145,6.145,0,0,1,3.16,2.381,7.075,7.075,0,0,1,1.065,3.951,7.791,7.791,0,0,1-1.219,4.3,7.478,7.478,0,0,1-1.935,2.121A7.6,7.6,0,0,1,16.18,122.6a19.26,19.26,0,0,1-3.863.362H0V96H13.211Q18.213,96.075,20.3,98.876ZM5.45,100.684v5.95H12.1a5.577,5.577,0,0,0,2.892-.669A2.539,2.539,0,0,0,16.1,103.6a2.419,2.419,0,0,0-1.468-2.494,10.49,10.49,0,0,0-3.232-.42Zm0,10.413v7.192h6.639a6.517,6.517,0,0,0,2.77-.476,3.39,3.39,0,0,0,1.8-3.368,2.892,2.892,0,0,0-1.739-2.895,7.023,7.023,0,0,0-2.737-.453Zm33.5-7.664a8.14,8.14,0,0,1,3.489,2.95,9.62,9.62,0,0,1,1.615,4.123,25.376,25.376,0,0,1,.177,3.959H29.5a4.763,4.763,0,0,0,2.118,4.205,5.418,5.418,0,0,0,2.917.752,4.518,4.518,0,0,0,2.931-.912,4.352,4.352,0,0,0,1.089-1.371h5.4A6.542,6.542,0,0,1,42,120.743a9.909,9.909,0,0,1-7.606,2.906,11.1,11.1,0,0,1-7.12-2.452q-3.094-2.451-3.088-7.982,0-5.184,2.784-7.952a9.842,9.842,0,0,1,7.228-2.765A11.551,11.551,0,0,1,38.95,103.432Zm-7.9,4.5a5.405,5.405,0,0,0-1.41,3.086h9.11a4.361,4.361,0,0,0-1.407-3.155,4.693,4.693,0,0,0-3.138-1.073A4.25,4.25,0,0,0,31.045,107.936Zm-2.776-7.322H39.984V97.258H28.269v3.357Z" transform="translate(3.871 -84.207)" fill="#ece6e6"/></svg>