<svg xmlns="http://www.w3.org/2000/svg" width="52.887" height="53.49" viewBox="0 0 52.887 53.49"><g transform="translate(1 1)"><path d="M684.112,263.346a5.138,5.138,0,0,1-5.13,5.147H638.355a5.138,5.138,0,0,1-5.13-5.147V222.151a5.138,5.138,0,0,1,5.13-5.147h40.626a5.139,5.139,0,0,1,5.13,5.147Z" transform="translate(-633.225 -217.004)" fill="none" stroke="#ece6e6" stroke-width="2"/><g transform="translate(9.302 9.167)"><path d="M671.905,251.4a3.413,3.413,0,0,1-3.693,3.423,3.43,3.43,0,1,1,3.693-3.423Zm-7.071,28.151V257.525h6.846V279.55Z" transform="translate(-664.654 -247.976)" fill="#ece6e6"/><path d="M701.811,286.086c0-2.747-.09-5.044-.18-7.026h5.945l.316,3.063h.135a7.91,7.91,0,0,1,6.8-3.559c4.5,0,7.882,3.018,7.882,9.5v13.017h-6.846V288.879c0-2.838-.991-4.774-3.469-4.774a3.759,3.759,0,0,0-3.513,2.567,4.929,4.929,0,0,0-.226,1.712v12.7h-6.846Z" transform="translate(-690.687 -269.511)" fill="#ece6e6"/></g></g></svg>